<svg xmlns="http://www.w3.org/2000/svg" viewBox="0 0 512 512">
  <!-- Hintergrund -->
  <rect width="512" height="512" rx="114" fill="#2d8b7a"/>

  <!-- Sonne oben rechts -->
  <circle cx="370" cy="142" r="55" fill="#f0c040" opacity="0.9"/>
  <!-- Sonnenstrahlen -->
  <line x1="370" y1="72" x2="370" y2="55" stroke="#f0c040" stroke-width="12" stroke-linecap="round" opacity="0.7"/>
  <line x1="370" y1="212" x2="370" y2="229" stroke="#f0c040" stroke-width="12" stroke-linecap="round" opacity="0.7"/>
  <line x1="300" y1="142" x2="283" y2="142" stroke="#f0c040" stroke-width="12" stroke-linecap="round" opacity="0.7"/>
  <line x1="440" y1="142" x2="457" y2="142" stroke="#f0c040" stroke-width="12" stroke-linecap="round" opacity="0.7"/>
  <line x1="321" y1="93" x2="309" y2="81" stroke="#f0c040" stroke-width="12" stroke-linecap="round" opacity="0.7"/>
  <line x1="419" y1="191" x2="431" y2="203" stroke="#f0c040" stroke-width="12" stroke-linecap="round" opacity="0.7"/>
  <line x1="419" y1="93" x2="431" y2="81" stroke="#f0c040" stroke-width="12" stroke-linecap="round" opacity="0.7"/>
  <line x1="321" y1="191" x2="309" y2="203" stroke="#f0c040" stroke-width="12" stroke-linecap="round" opacity="0.7"/>

  <!-- Koffer Körper -->
  <rect x="130" y="220" width="252" height="190" rx="20" fill="white" opacity="0.95"/>

  <!-- Koffer Griff -->
  <rect x="206" y="185" width="100" height="45" rx="14" fill="none" stroke="white" stroke-width="14" opacity="0.95"/>

  <!-- Koffer Mittellinie -->
  <line x1="130" y1="315" x2="382" y2="315" stroke="#2d8b7a" stroke-width="8" opacity="0.3"/>

  <!-- Koffer Schloss -->
  <rect x="236" y="295" width="40" height="40" rx="8" fill="#2d8b7a" opacity="0.5"/>
  <circle cx="256" cy="311" r="6" fill="white" opacity="0.8"/>
  <rect x="252" y="316" width="8" height="10" rx="2" fill="white" opacity="0.8"/>

  <!-- Koffer Räder -->
  <circle cx="175" cy="418" r="16" fill="#1a6b5a"/>
  <circle cx="337" cy="418" r="16" fill="#1a6b5a"/>

  <!-- Koffer Details - Streifen -->
  <rect x="130" y="248" width="252" height="12" rx="6" fill="#3aa896" opacity="0.3"/>
  <rect x="130" y="348" width="252" height="12" rx="6" fill="#3aa896" opacity="0.3"/>
</svg>
